<svg xmlns="http://www.w3.org/2000/svg" id="export" class="graph" preserveAspectRatio="xMidYMid meet" style="position: absolute; margin: 0px;" width="109" height="94"><rect id="background" fill="#fff" pointer-events="all" width="109" height="94"/><g id="origin" transform="translate(4.25, 4.25) scale(1)"><g id="clusters" class="clusters"/><g id="edge-paths" class="edge-paths"><defs><marker id="arrowhead-vee" viewBox="0 0 10 10" refX="9" refY="5" markerUnits="strokeWidth" markerWidth="8" markerHeight="6" orient="auto" style="fill: rgb(0, 0, 0);"><path d="M 0 0 L 10 5 L 0 10 L 4 5 z" style="stroke-width: 1; stroke-dasharray: 1, 0;"/></marker></defs></g><g id="edge-labels" class="edge-labels"/><g id="nodes" class="nodes"><g id="node-1576653474900" class="node" transform="translate(50,42.5)" style="opacity: 1;"><g transform="translate(-50,-42.5)"><g><g class="node-item node-item-operator" transform="translate(0,0)"><path d="M5,0h90a5,5 0 0 1 5,5v18a0,0 0 0 1 0,0h-100a0,0 0 0 1 0,0v-18a5,5 0 0 1 5,-5z" style="stroke: rgb(0, 0, 0); fill: rgb(0, 0, 0); stroke-width: 0;"/><text x="6" y="16" style="font-family: -apple-system, BlinkMacSystemFont, &quot;Segoe WPC&quot;, &quot;Segoe UI&quot;, Ubuntu, &quot;Droid Sans&quot;, sans-serif; font-size: 11px; text-rendering: geometricprecision; fill: rgb(255, 255, 255);">MLP</text></g><g class="node-attribute" transform="translate(0,23)"><path d="M0,0h100a0,0 0 0 1 0,0v57a5,5 0 0 1 -5,5h-90a5,5 0 0 1 -5,-5v-57a0,0 0 0 1 0,0z" style="stroke: rgb(0, 0, 0); fill: rgb(255, 255, 255); stroke-width: 0;"/><text id="initializer-" xml:space="preserve" x="6" y="14" style="font-family: -apple-system, BlinkMacSystemFont, &quot;Segoe WPC&quot;, &quot;Segoe UI&quot;, Ubuntu, &quot;Droid Sans&quot;, sans-serif; font-size: 9px; font-weight: normal; text-rendering: geometricprecision;"><title>float64[4,2]</title><tspan style="font-weight: bold;">weights_1</tspan><tspan>〈4×2〉</tspan></text><text id="initializer-" xml:space="preserve" x="6" y="28" style="font-family: -apple-system, BlinkMacSystemFont, &quot;Segoe WPC&quot;, &quot;Segoe UI&quot;, Ubuntu, &quot;Droid Sans&quot;, sans-serif; font-size: 9px; font-weight: normal; text-rendering: geometricprecision;"><title>float64[2]</title><tspan style="font-weight: bold;">biases_1</tspan><tspan>〈2〉</tspan></text><text id="initializer-" xml:space="preserve" x="6" y="42" style="font-family: -apple-system, BlinkMacSystemFont, &quot;Segoe WPC&quot;, &quot;Segoe UI&quot;, Ubuntu, &quot;Droid Sans&quot;, sans-serif; font-size: 9px; font-weight: normal; text-rendering: geometricprecision;"><title>float64[2,1]</title><tspan style="font-weight: bold;">weights_2</tspan><tspan>〈2×1〉</tspan></text><text id="initializer-" xml:space="preserve" x="6" y="56" style="font-family: -apple-system, BlinkMacSystemFont, &quot;Segoe WPC&quot;, &quot;Segoe UI&quot;, Ubuntu, &quot;Droid Sans&quot;, sans-serif; font-size: 9px; font-weight: normal; text-rendering: geometricprecision;"><title>float64[1]</title><tspan style="font-weight: bold;">biases_2</tspan><tspan>〈1〉</tspan></text><line class="node" x1="0" x2="100" y1="0" y2="0" style="stroke: rgb(51, 51, 51); fill: none; stroke-width: 1px;"/></g><path class="node border" d="M5,0h90a5,5 0 0 1 5,5v75a5,5 0 0 1 -5,5h-90a5,5 0 0 1 -5,-5v-75a5,5 0 0 1 5,-5z" style="stroke: rgb(51, 51, 51); fill: none; stroke-width: 1px;"/></g></g></g></g></g></svg>