<svg xmlns="http://www.w3.org/2000/svg" width="1920" height="913" style="cursor: move;"><g transform="translate(-1013.1235142921109,-420.431380931748) scale(2.0000000000000018)"><path class="link" marker-end="url(#arrow)" d="M851,394.5, 976,466.5" style="stroke-width: 0.54; stroke-opacity: 1; stroke: rgb(255, 95, 95);"></path><path class="link" marker-end="url(#arrow)" d="M851,430.5, 976,466.5" style="stroke-width: 0.54; stroke-opacity: 1; stroke: rgb(146, 146, 255);"></path><path class="link" marker-end="url(#arrow)" d="M851,466.5, 976,466.5" style="stroke-width: 0.54; stroke-opacity: 1; stroke: rgb(199, 199, 255);"></path><path class="link" marker-end="url(#arrow)" d="M851,502.5, 976,466.5" style="stroke-width: 0.54; stroke-opacity: 1; stroke: rgb(125, 125, 255);"></path><path class="link" marker-end="url(#arrow)" d="M976,430.5, 1101,448.5" style="stroke-width: 0.54; stroke-opacity: 1; stroke: rgb(87, 87, 255);"></path><path class="link" marker-end="url(#arrow)" d="M976,466.5, 1101,448.5" style="stroke-width: 0.54; stroke-opacity: 1; stroke: rgb(255, 16, 16);"></path><path class="link" marker-end="url(#arrow)" d="M851,394.5, 976,430.5" style="stroke-width: 0.54; stroke-opacity: 1; stroke: rgb(174, 174, 255);"></path><path class="link" marker-end="url(#arrow)" d="M851,430.5, 976,430.5" style="stroke-width: 0.54; stroke-opacity: 1; stroke: rgb(255, 202, 202);"></path><path class="link" marker-end="url(#arrow)" d="M851,466.5, 976,430.5" style="stroke-width: 0.54; stroke-opacity: 1; stroke: rgb(255, 124, 124);"></path><path class="link" marker-end="url(#arrow)" d="M851,502.5, 976,430.5" style="stroke-width: 0.54; stroke-opacity: 1; stroke: rgb(241, 241, 255);"></path><circle r="8.5" class="node" id="0_0" cx="851" cy="394.5" style="fill: rgb(255, 255, 255); stroke: rgb(51, 51, 51);"></circle><circle r="8.5" class="node" id="0_1" cx="851" cy="430.5" style="fill: rgb(255, 255, 255); stroke: rgb(51, 51, 51);"></circle><circle r="8.5" class="node" id="0_2" cx="851" cy="466.5" style="fill: rgb(255, 255, 255); stroke: rgb(51, 51, 51);"></circle><circle r="8.5" class="node" id="0_3" cx="851" cy="502.5" style="fill: rgb(255, 255, 255); stroke: rgb(51, 51, 51);"></circle><circle r="8.5" class="node" id="1_0" cx="976" cy="430.5" style="fill: rgb(255, 255, 255); stroke: rgb(51, 51, 51);"></circle><circle r="8.5" class="node" id="1_1" cx="976" cy="466.5" style="fill: rgb(255, 255, 255); stroke: rgb(51, 51, 51);"></circle><circle r="8.5" class="node" id="2_0" cx="1101" cy="448.5" style="fill: rgb(255, 255, 255); stroke: rgb(51, 51, 51);"></circle><text class="text" dy=".35em" x="816" y="538.5" style="font-size: 12px;">Input Layer ∈ ℝ⁴</text><text class="text" dy=".35em" x="941" y="538.5" style="font-size: 12px;">Hidden Layer ∈ ℝ²</text><text class="text" dy=".35em" x="1066" y="538.5" style="font-size: 12px;">Output Layer ∈ ℝ¹</text></g><defs><marker id="arrow" viewBox="0 -5 10 10" markerWidth="7" markerHeight="7" orient="auto" refX="35.8"><path d="M0,-5L10,0L0,5" style="stroke: rgb(80, 80, 80); fill: rgb(80, 80, 80);"></path></marker></defs></svg>