<svg xmlns="http://www.w3.org/2000/svg" width="1723" height="804" style="cursor: move;"><g><path class="link" marker-end="url(#arrow)" d="M779.5,294, 871.5,428" style="stroke-width: 0.94; stroke-opacity: 1; stroke: rgb(255, 108, 108);"></path><path class="link" marker-end="url(#arrow)" d="M825.5,294, 871.5,428" style="stroke-width: 0.94; stroke-opacity: 1; stroke: rgb(204, 204, 255);"></path><path class="link" marker-end="url(#arrow)" d="M871.5,294, 871.5,428" style="stroke-width: 0.94; stroke-opacity: 1; stroke: rgb(112, 112, 255);"></path><path class="link" marker-end="url(#arrow)" d="M917.5,294, 871.5,428" style="stroke-width: 0.94; stroke-opacity: 1; stroke: rgb(255, 144, 144);"></path><path class="link" marker-end="url(#arrow)" d="M825.5,428, 848.5,562" style="stroke-width: 0.94; stroke-opacity: 1; stroke: rgb(145, 145, 255);"></path><path class="link" marker-end="url(#arrow)" d="M871.5,428, 848.5,562" style="stroke-width: 0.94; stroke-opacity: 1; stroke: rgb(255, 50, 50);"></path><path class="link" marker-end="url(#arrow)" d="M779.5,294, 825.5,428" style="stroke-width: 0.94; stroke-opacity: 1; stroke: rgb(183, 183, 255);"></path><path class="link" marker-end="url(#arrow)" d="M825.5,294, 825.5,428" style="stroke-width: 0.94; stroke-opacity: 1; stroke: rgb(255, 147, 147);"></path><path class="link" marker-end="url(#arrow)" d="M871.5,294, 825.5,428" style="stroke-width: 0.94; stroke-opacity: 1; stroke: rgb(255, 150, 150);"></path><path class="link" marker-end="url(#arrow)" d="M917.5,294, 825.5,428" style="stroke-width: 0.94; stroke-opacity: 1; stroke: rgb(32, 32, 255);"></path><circle r="13" class="node" id="0_0" cx="779.5" cy="294" style="fill: rgb(255, 255, 255); stroke: rgb(51, 51, 51);"></circle><circle r="13" class="node" id="0_1" cx="825.5" cy="294" style="fill: rgb(255, 255, 255); stroke: rgb(51, 51, 51);"></circle><circle r="13" class="node" id="0_2" cx="871.5" cy="294" style="fill: rgb(255, 255, 255); stroke: rgb(51, 51, 51);"></circle><circle r="13" class="node" id="0_3" cx="917.5" cy="294" style="fill: rgb(255, 255, 255); stroke: rgb(51, 51, 51);"></circle><circle r="13" class="node" id="1_0" cx="825.5" cy="428" style="fill: rgb(255, 255, 255); stroke: rgb(51, 51, 51);"></circle><circle r="13" class="node" id="1_1" cx="871.5" cy="428" style="fill: rgb(255, 255, 255); stroke: rgb(51, 51, 51);"></circle><circle r="13" class="node" id="2_0" cx="848.5" cy="562" style="fill: rgb(255, 255, 255); stroke: rgb(51, 51, 51);"></circle><text class="text" dy=".35em" x="963.5" y="294" style="font-size: 12px;">Input Layer ∈ ℝ⁴</text><text class="text" dy=".35em" x="963.5" y="428" style="font-size: 12px;">Hidden Layer ∈ ℝ²</text><text class="text" dy=".35em" x="963.5" y="562" style="font-size: 12px;">Output Layer ∈ ℝ¹</text></g><defs><marker id="arrow" viewBox="0 -5 10 10" markerWidth="7" markerHeight="7" orient="auto" refX="48.4"><path d="M0,-5L10,0L0,5" style="stroke: rgb(80, 80, 80); fill: rgb(80, 80, 80);"></path></marker></defs></svg>