<svg xmlns="http://www.w3.org/2000/svg" id="export" class="graph" preserveAspectRatio="xMidYMid meet" style="position: absolute; margin: 0px;" width="110" height="350"><rect id="background" fill="#fff" pointer-events="all" width="110" height="350"/><g id="origin" transform="translate(5, 5) scale(1)"><g id="clusters" class="clusters"/><g id="edge-paths" class="edge-paths"><defs><marker id="arrowhead-vee" viewBox="0 0 10 10" refX="9" refY="5" markerUnits="strokeWidth" markerWidth="8" markerHeight="6" orient="auto" style="fill: rgb(0, 0, 0);"><path d="M 0 0 L 10 5 L 0 10 L 4 5 z" style="stroke-width: 1; stroke-dasharray: 1, 0;"/></marker></defs><path class="edge-path" d="M50,23L50,24.666666666666668C50,26.333333333333332,50,29.666666666666668,50,33C50,36.333333333333336,50,39.666666666666664,50,41.333333333333336L50,43" marker-end="url(#arrowhead-vee)" id="edge-data" style="stroke: rgb(0, 0, 0); stroke-width: 1px; fill: none;"/><path class="edge-path" d="M50,100L50,101.66666666666667C50,103.33333333333333,50,106.66666666666667,50,110C50,113.33333333333333,50,116.66666666666667,50,118.33333333333333L50,120" marker-end="url(#arrowhead-vee)" id="edge-conv1" style="stroke: rgb(0, 0, 0); stroke-width: 1px; fill: none;"/><path class="edge-path" d="M50,143L50,144.66666666666666C50,146.33333333333334,50,149.66666666666666,50,153C50,156.33333333333334,50,159.66666666666666,50,161.33333333333334L50,163" marker-end="url(#arrowhead-vee)" id="edge-pool" style="stroke: rgb(0, 0, 0); stroke-width: 1px; fill: none;"/><path class="edge-path" d="M50,220L50,221.66666666666666C50,223.33333333333334,50,226.66666666666666,50,230C50,233.33333333333334,50,236.66666666666666,50,238.33333333333334L50,240" marker-end="url(#arrowhead-vee)" id="edge-fc1" style="stroke: rgb(0, 0, 0); stroke-width: 1px; fill: none;"/><path class="edge-path" d="M50,297L50,298.6666666666667C50,300.3333333333333,50,303.6666666666667,50,307C50,310.3333333333333,50,313.6666666666667,50,315.3333333333333L50,317" marker-end="url(#arrowhead-vee)" id="edge-fc2" style="stroke: rgb(0, 0, 0); stroke-width: 1px; fill: none;"/></g><g id="edge-labels" class="edge-labels"/><g id="nodes" class="nodes"><g id="node-conv1" class="node" transform="translate(50,71.5)" style="opacity: 1;"><g transform="translate(-50,-28.5)"><g><g class="node-item node-item-operator node-item-operator-layer" transform="translate(0,0)"><path d="M5,0h90a5,5 0 0 1 5,5v18a0,0 0 0 1 0,0h-100a0,0 0 0 1 0,0v-18a5,5 0 0 1 5,-5z" style="stroke: rgb(0, 0, 0); fill: rgb(51, 85, 136); stroke-width: 0;"/><text x="6" y="16" style="font-family: -apple-system, BlinkMacSystemFont, &quot;Segoe WPC&quot;, &quot;Segoe UI&quot;, Ubuntu, &quot;Droid Sans&quot;, sans-serif; font-size: 11px; text-rendering: geometricprecision; fill: rgb(255, 255, 255);">Conv2d</text><title>conv1</title></g><g class="node-attribute" transform="translate(0,23)"><path d="M0,0h100a0,0 0 0 1 0,0v29a5,5 0 0 1 -5,5h-90a5,5 0 0 1 -5,-5v-29a0,0 0 0 1 0,0z" style="stroke: rgb(0, 0, 0); fill: rgb(255, 255, 255); stroke-width: 0;"/><text id="initializer-" xml:space="preserve" x="6" y="14" style="font-family: -apple-system, BlinkMacSystemFont, &quot;Segoe WPC&quot;, &quot;Segoe UI&quot;, Ubuntu, &quot;Droid Sans&quot;, sans-serif; font-size: 9px; font-weight: normal; text-rendering: geometricprecision;"><title>float32[12,3,3,3]</title><tspan style="font-weight: bold;">weight</tspan><tspan>〈12×3×3×3〉</tspan></text><text id="initializer-" xml:space="preserve" x="6" y="28" style="font-family: -apple-system, BlinkMacSystemFont, &quot;Segoe WPC&quot;, &quot;Segoe UI&quot;, Ubuntu, &quot;Droid Sans&quot;, sans-serif; font-size: 9px; font-weight: normal; text-rendering: geometricprecision;"><title>float32[12]</title><tspan style="font-weight: bold;">bias</tspan><tspan>〈12〉</tspan></text><line class="node" x1="0" x2="100" y1="0" y2="0" style="stroke: rgb(51, 51, 51); fill: none; stroke-width: 1px;"/></g><path class="node border" d="M5,0h90a5,5 0 0 1 5,5v47a5,5 0 0 1 -5,5h-90a5,5 0 0 1 -5,-5v-47a5,5 0 0 1 5,-5z" style="stroke: rgb(51, 51, 51); fill: none; stroke-width: 1px;"/></g></g></g><g id="node-pool" class="node" transform="translate(50,131.5)" style="opacity: 1;"><g transform="translate(-34.125,-11.5)"><g><g class="node-item node-item-operator node-item-operator-pool" transform="translate(0,0)"><path d="M5,0h58.25a5,5 0 0 1 5,5v13a5,5 0 0 1 -5,5h-58.25a5,5 0 0 1 -5,-5v-13a5,5 0 0 1 5,-5z" style="stroke: rgb(0, 0, 0); fill: rgb(51, 85, 51); stroke-width: 0;"/><text x="6" y="16" style="font-family: -apple-system, BlinkMacSystemFont, &quot;Segoe WPC&quot;, &quot;Segoe UI&quot;, Ubuntu, &quot;Droid Sans&quot;, sans-serif; font-size: 11px; text-rendering: geometricprecision; fill: rgb(255, 255, 255);">MaxPool2d</text><title>pool</title></g><path class="node border" d="M5,0h58.25a5,5 0 0 1 5,5v13a5,5 0 0 1 -5,5h-58.25a5,5 0 0 1 -5,-5v-13a5,5 0 0 1 5,-5z" style="stroke: rgb(51, 51, 51); fill: none; stroke-width: 1px;"/></g></g></g><g id="node-fc1" class="node" transform="translate(50,191.5)" style="opacity: 1;"><g transform="translate(-50,-28.5)"><g><g class="node-item node-item-operator node-item-operator-layer" transform="translate(0,0)"><path d="M5,0h90a5,5 0 0 1 5,5v18a0,0 0 0 1 0,0h-100a0,0 0 0 1 0,0v-18a5,5 0 0 1 5,-5z" style="stroke: rgb(0, 0, 0); fill: rgb(51, 85, 136); stroke-width: 0;"/><text x="6" y="16" style="font-family: -apple-system, BlinkMacSystemFont, &quot;Segoe WPC&quot;, &quot;Segoe UI&quot;, Ubuntu, &quot;Droid Sans&quot;, sans-serif; font-size: 11px; text-rendering: geometricprecision; fill: rgb(255, 255, 255);">Linear</text><title>fc1</title></g><g class="node-attribute" transform="translate(0,23)"><path d="M0,0h100a0,0 0 0 1 0,0v29a5,5 0 0 1 -5,5h-90a5,5 0 0 1 -5,-5v-29a0,0 0 0 1 0,0z" style="stroke: rgb(0, 0, 0); fill: rgb(255, 255, 255); stroke-width: 0;"/><text id="initializer-" xml:space="preserve" x="6" y="14" style="font-family: -apple-system, BlinkMacSystemFont, &quot;Segoe WPC&quot;, &quot;Segoe UI&quot;, Ubuntu, &quot;Droid Sans&quot;, sans-serif; font-size: 9px; font-weight: normal; text-rendering: geometricprecision;"><title>float32[64,12288]</title><tspan style="font-weight: bold;">weight</tspan><tspan>〈64×12288〉</tspan></text><text id="initializer-" xml:space="preserve" x="6" y="28" style="font-family: -apple-system, BlinkMacSystemFont, &quot;Segoe WPC&quot;, &quot;Segoe UI&quot;, Ubuntu, &quot;Droid Sans&quot;, sans-serif; font-size: 9px; font-weight: normal; text-rendering: geometricprecision;"><title>float32[64]</title><tspan style="font-weight: bold;">bias</tspan><tspan>〈64〉</tspan></text><line class="node" x1="0" x2="100" y1="0" y2="0" style="stroke: rgb(51, 51, 51); fill: none; stroke-width: 1px;"/></g><path class="node border" d="M5,0h90a5,5 0 0 1 5,5v47a5,5 0 0 1 -5,5h-90a5,5 0 0 1 -5,-5v-47a5,5 0 0 1 5,-5z" style="stroke: rgb(51, 51, 51); fill: none; stroke-width: 1px;"/></g></g></g><g id="node-fc2" class="node" transform="translate(50,268.5)" style="opacity: 1;"><g transform="translate(-50,-28.5)"><g><g class="node-item node-item-operator node-item-operator-layer" transform="translate(0,0)"><path d="M5,0h90a5,5 0 0 1 5,5v18a0,0 0 0 1 0,0h-100a0,0 0 0 1 0,0v-18a5,5 0 0 1 5,-5z" style="stroke: rgb(0, 0, 0); fill: rgb(51, 85, 136); stroke-width: 0;"/><text x="6" y="16" style="font-family: -apple-system, BlinkMacSystemFont, &quot;Segoe WPC&quot;, &quot;Segoe UI&quot;, Ubuntu, &quot;Droid Sans&quot;, sans-serif; font-size: 11px; text-rendering: geometricprecision; fill: rgb(255, 255, 255);">Linear</text><title>fc2</title></g><g class="node-attribute" transform="translate(0,23)"><path d="M0,0h100a0,0 0 0 1 0,0v29a5,5 0 0 1 -5,5h-90a5,5 0 0 1 -5,-5v-29a0,0 0 0 1 0,0z" style="stroke: rgb(0, 0, 0); fill: rgb(255, 255, 255); stroke-width: 0;"/><text id="initializer-" xml:space="preserve" x="6" y="14" style="font-family: -apple-system, BlinkMacSystemFont, &quot;Segoe WPC&quot;, &quot;Segoe UI&quot;, Ubuntu, &quot;Droid Sans&quot;, sans-serif; font-size: 9px; font-weight: normal; text-rendering: geometricprecision;"><title>float32[3,64]</title><tspan style="font-weight: bold;">weight</tspan><tspan>〈3×64〉</tspan></text><text id="initializer-" xml:space="preserve" x="6" y="28" style="font-family: -apple-system, BlinkMacSystemFont, &quot;Segoe WPC&quot;, &quot;Segoe UI&quot;, Ubuntu, &quot;Droid Sans&quot;, sans-serif; font-size: 9px; font-weight: normal; text-rendering: geometricprecision;"><title>float32[3]</title><tspan style="font-weight: bold;">bias</tspan><tspan>〈3〉</tspan></text><line class="node" x1="0" x2="100" y1="0" y2="0" style="stroke: rgb(51, 51, 51); fill: none; stroke-width: 1px;"/></g><path class="node border" d="M5,0h90a5,5 0 0 1 5,5v47a5,5 0 0 1 -5,5h-90a5,5 0 0 1 -5,-5v-47a5,5 0 0 1 5,-5z" style="stroke: rgb(51, 51, 51); fill: none; stroke-width: 1px;"/></g></g></g><g class="node graph-input" transform="translate(50,11.5)" style="opacity: 1;"><g transform="translate(-17.90625,-11.5)"><g><g class="node-item graph-item-input" transform="translate(0,0)"><path d="M5,0h25.8125a5,5 0 0 1 5,5v13a5,5 0 0 1 -5,5h-25.8125a5,5 0 0 1 -5,-5v-13a5,5 0 0 1 5,-5z" style="stroke: rgb(0, 0, 0); fill: rgb(238, 238, 238); stroke-width: 0;"/><text x="6" y="16" style="font-family: -apple-system, BlinkMacSystemFont, &quot;Segoe WPC&quot;, &quot;Segoe UI&quot;, Ubuntu, &quot;Droid Sans&quot;, sans-serif; font-size: 11px; text-rendering: geometricprecision;">data</text></g><path class="node border" d="M5,0h25.8125a5,5 0 0 1 5,5v13a5,5 0 0 1 -5,5h-25.8125a5,5 0 0 1 -5,-5v-13a5,5 0 0 1 5,-5z" style="stroke: rgb(51, 51, 51); fill: none; stroke-width: 1px;"/></g></g></g><g class="node" transform="translate(50,328.5)" style="opacity: 1;"><g transform="translate(-14.265625,-11.5)"><g><g class="node-item graph-item-output" transform="translate(0,0)"><path d="M5,0h18.53125a5,5 0 0 1 5,5v13a5,5 0 0 1 -5,5h-18.53125a5,5 0 0 1 -5,-5v-13a5,5 0 0 1 5,-5z" style="stroke: rgb(0, 0, 0); fill: rgb(238, 238, 238); stroke-width: 0;"/><text x="6" y="16" style="font-family: -apple-system, BlinkMacSystemFont, &quot;Segoe WPC&quot;, &quot;Segoe UI&quot;, Ubuntu, &quot;Droid Sans&quot;, sans-serif; font-size: 11px; text-rendering: geometricprecision;">fc2</text></g><path class="node border" d="M5,0h18.53125a5,5 0 0 1 5,5v13a5,5 0 0 1 -5,5h-18.53125a5,5 0 0 1 -5,-5v-13a5,5 0 0 1 5,-5z" style="stroke: rgb(51, 51, 51); fill: none; stroke-width: 1px;"/></g></g></g></g></g></svg>